<?xml version="1.0" encoding="UTF-8"?>
<!DOCTYPE svg PUBLIC "-//W3C//DTD SVG 1.1//EN" "http://www.w3.org/Graphics/SVG/1.1/DTD/svg11.dtd">
<!-- Creator: CorelDRAW 2020 (64-Bit) -->
<?xml-stylesheet href="logoTuyo.css" type="text/css"?>
<svg xmlns="http://www.w3.org/2000/svg" xml:space="preserve" width="90mm" height="45mm" version="1.1" style="shape-rendering:geometricPrecision; text-rendering:geometricPrecision; image-rendering:optimizeQuality; fill-rule:evenodd; clip-rule:evenodd"
viewBox="0 0 9000 4500"
 xmlns:xlink="http://www.w3.org/1999/xlink"
 xmlns:xodm="http://www.corel.com/coreldraw/odm/2003">
 <g id="Capa_x0020_1">
  <metadata id="CorelCorpID_0Corel-Layer"/>
  <path class="fil0" d="M7045.19 2598.35c0,239.85 52.43,419.43 157.29,538.14 105.46,119.32 237.43,178.98 397.12,178.98 157.89,0 289.26,-59.66 394.72,-179.58 104.86,-119.92 157.28,-302.51 157.28,-547.78 0,-231.41 -53.03,-406.77 -158.49,-525.49 -105.45,-119.31 -236.82,-178.97 -393.51,-178.97 -159.69,0 -291.66,59.05 -397.12,177.77 -104.86,118.71 -157.29,297.69 -157.29,536.93z"/>
  <path class="fil0" d="M6719.78 2597.75c0,-346.51 96.42,-603.22 289.86,-770.15 160.9,-138.6 357.96,-207.9 589.96,-207.9 257.32,0 468.24,84.37 632.15,253.1 163.31,168.13 245.27,401.34 245.27,698.44 0,241.04 -36.16,430.27 -108.47,568.27 -72.32,138 -177.78,245.26 -316.38,321.8 -138,76.53 -289.26,114.49 -452.57,114.49 -262.74,0 -474.86,-83.76 -636.97,-251.89 -162.1,-168.13 -242.85,-410.39 -242.85,-726.16z"/>
  <path class="fil0" d="M5016.77 4257.37l-36.15 -294.08c69.9,18.68 130.16,28.32 181.99,28.32 71.11,0 127.75,-12.05 169.94,-35.55 42.78,-23.51 77.74,-56.65 104.85,-98.83 19.89,-31.94 52.43,-110.89 97.03,-237.44 6.02,-17.47 15.06,-43.38 28.32,-77.73l-712.3 -1882.59 339.88 0 391.7 1083.51c51.22,136.8 96.42,281.43 136.8,433.29 36.76,-142.83 80.15,-283.84 130.77,-422.44l400.14 -1094.36 317.58 0 -709.29 1909.1c-76.53,205.49 -136.19,346.51 -178.98,424.25 -56.64,104.25 -121.73,180.78 -194.64,229.59 -73.52,48.82 -160.9,72.92 -262.14,72.92 -61.47,0 -130.17,-12.65 -205.5,-37.96z"/>
  <path class="fil0" d="M4246.03 3536.03l0 -279.01c-145.84,212.72 -343.5,318.78 -593.58,318.78 -110.28,0 -213.33,-21.09 -309.15,-63.27 -95.81,-42.79 -166.92,-95.82 -213.33,-159.7 -46.4,-64.48 -78.94,-142.82 -97.62,-235.62 -12.66,-62.67 -19.28,-161.5 -19.28,-296.49l0 -1161.25 318.18 0 0 1038.32c0,165.72 6.63,277.8 19.28,335.05 19.89,83.77 62.07,148.85 127.16,196.46 64.48,47.6 144.02,71.71 239.24,71.71 95.21,0 184.4,-24.11 267.56,-72.92 83.16,-48.81 142.22,-115.7 177.17,-199.47 34.35,-83.76 51.83,-206.09 51.83,-365.79l0 -1003.36 318.18 0 0 1876.56 -285.64 0z"/>
  <polygon class="fil0" points="1576.62,3559.02 1576.62,849.94 369.65,849.94 316.73,331.12 5682.45,331.13 3269.45,849.94 2062.48,849.94 2062.48,3559.02 "/>
 </g>
</svg>
