<?xml version="1.0" encoding="UTF-8"?>
<!DOCTYPE svg PUBLIC "-//W3C//DTD SVG 1.1//EN" "http://www.w3.org/Graphics/SVG/1.1/DTD/svg11.dtd">
<!-- Creator: CorelDRAW 2020 (64-Bit) -->
<svg xmlns="http://www.w3.org/2000/svg" xml:space="preserve" width="2008px" height="1299px" version="1.1" style="shape-rendering:geometricPrecision; text-rendering:geometricPrecision; image-rendering:optimizeQuality; fill-rule:evenodd; clip-rule:evenodd"
viewBox="0 0 2008 1299.29"
 xmlns:xlink="http://www.w3.org/1999/xlink"
 xmlns:xodm="http://www.corel.com/coreldraw/odm/2003">
 <defs>
  <style type="text/css">
   <![CDATA[
    .fil0 {fill:#09090E}
    .fil1 {fill:#141424}
    .fil2 {fill:#252422}
    .fil18 {fill:#9593A9}
    .fil12 {fill:#ABB8E7}
    .fil21 {fill:#B09AAE}
    .fil3 {fill:#B84602}
    .fil13 {fill:#C8BED4}
    .fil11 {fill:#CA1B47}
    .fil19 {fill:#CE172E}
    .fil4 {fill:#CF5215}
    .fil20 {fill:#D55452}
    .fil10 {fill:#DA7167}
    .fil14 {fill:#DEDBE2}
    .fil9 {fill:#E54B02}
    .fil7 {fill:#E96604}
    .fil15 {fill:#F96626}
    .fil5 {fill:#F97808}
    .fil16 {fill:#FA9371}
    .fil17 {fill:#FCB8A7}
    .fil8 {fill:#FDC4B8}
    .fil6 {fill:white}
   ]]>
  </style>
 </defs>
 <g id="Capa_x0020_1">
  <metadata id="CorelCorpID_0Corel-Layer"/>
  <path class="fil0" d="M1141.3 235.58c5.12,7.72 2.78,6.32 9.66,12.5 11.58,7.74 17.95,22.25 22.8,40.8 2.79,10.66 7.99,14.88 8.84,23.03 1.07,10.45 -3.19,19.02 -3.17,29.76 0.09,40.08 6.61,86.61 0.58,125.42 -38.11,-0.04 -40.47,-11.62 -59,-8.27 -4.55,0.83 -2.64,0.45 -4.8,1.57 -3.01,3.49 13.46,259.3 40.43,297.33 8.88,12.53 2.4,3.52 7.74,16.26 3.07,7.34 6.98,10.23 6.33,19.23 4.74,11.07 8.98,25.71 16.95,32.86l-12.16 -27.97 118.34 23.21c122.32,17.4 215.56,21.47 338.32,20.27 21.82,-0.21 48.45,-3.62 69.09,-2.57 7.82,-2.88 56.3,-6.05 71.46,-8.68 11.98,-2.09 21.95,-3.25 33.39,-6.17 10.96,-2.8 19.83,-7.49 30.47,-9.27l1.69 -2.11c1.67,-12.23 1.46,-23.11 2.26,-35.31 0.8,-12.32 3.26,-23.73 4.49,-35.93 6.58,-65.16 -14.86,-220.01 -27.54,-289.22 -8.28,-45.17 -26.73,-110.94 -47.45,-151.06 -5.43,-10.5 -11.83,-16.02 -16.59,-23.95l-10.8 -7.76c-18.41,-5.03 -20.9,-10.9 -63.77,-19.84 -23.4,-4.88 -49.94,-8.17 -73.03,-10.93 -109.3,-13.02 -286.1,-24.71 -395.45,-13.99 -18.27,1.8 -58.59,10.7 -69.08,10.79z"/>
  <path class="fil1" d="M619.11 299.67l-342.23 95.39c-6.24,4.39 -61.21,19 -73.13,22.58 -24.22,7.29 -48.89,14.25 -71.91,22.85 -6.69,26.8 -26.63,136.39 -21.91,167.83 2.42,5.84 3.18,4.23 3.89,5.21l139.71 -20.91 459.75 -69.73 29.39 -4.91c5.8,-1.09 11.96,-2.27 17.51,-3.02 8.54,-1.17 12.73,-0.07 18.22,-3.65 -3.87,-28.43 1.44,-94.17 4.44,-124.18 5.05,-42.47 9.54,-100.89 22.68,-140.03l-186.41 52.57z"/>
  <path class="fil0" d="M818.03 261.51c-8.67,14.95 -15.53,102.21 -16.19,123.91 -0.64,20.87 -1.77,45.44 -0.48,66.15 1.15,18.57 4.9,44.17 4.54,61.6 5.24,8.43 8.09,6.75 19.87,16.01 37.83,29.72 59.96,51.87 94.27,80.9 7.22,6.1 10.03,11.47 16.62,17.11l72.68 66.63c4.55,4.74 4.88,4.55 9.8,8.2l46.13 41.29c3.71,3.05 6.9,4.27 10.5,7.57l27.24 27.39 0.21 -126.1c-2.81,-76.33 -12.84,-226.3 -21.57,-303.34 -2.99,-26.34 -7.2,-32.57 -12.83,-53.57 -9.34,-11.79 -12.35,-25.09 -42.66,-34.1 -18.6,-5.53 -45.64,-10.92 -66.59,-11.49 -25.71,-0.69 -50.87,-0.68 -76.48,1.53 -26.49,2.28 -55.79,9.62 -65.06,10.31z"/>
  <path class="fil2" d="M230.9 1072.01c-2.54,6.88 2.78,2.2 -7.6,3.97 -4.13,0.71 -28.2,-2.1 -27.69,7.96 0.2,3.93 1.47,3.9 9.89,7.64 10.33,4.59 15.92,2.94 26.32,5.71 21.69,5.78 108.75,22.36 128.8,23.83 36.72,2.68 107.69,2.99 142.15,11.67l239.07 41.67c8.03,1.6 11.18,4.46 18.64,6.83 28.54,9.08 23.25,11.83 35.77,15.97 6.26,2.07 13.46,2.77 21.54,4.44 5.96,1.24 13.47,3.71 20.13,5.49 15.48,4.15 28.13,3.99 45.86,5.82 32.4,3.36 80.08,3.51 119.61,5.75l113.09 14.84c7.33,0.9 13.35,3.66 20.55,4.46 68.82,7.61 251.65,-0.67 327.97,-1.1 34.59,-0.2 66.11,-1.72 99.5,-1.88 23.17,-0.11 84.72,4.6 97.27,-5.87 -9.33,-7.67 -31.82,-8.78 -41.31,-10.22 -13.2,-2.01 -54.41,-8.47 -65.22,-14.01 -18.29,-9.35 -4.04,-5.32 -27.04,-12.62 -2.72,-0.86 -7.31,-2.35 -10.64,-3.1 -4.98,-1.12 -7.75,-1.45 -11.39,-2.63l-9.92 -5.18c4.14,-5.64 10.1,-14.49 12.77,-19.29 60.26,-1.19 291.09,5.6 324.99,-21.68 -52.18,1.18 -110.32,6.4 -164.93,2.55l-282.85 2.23c-11,-4.01 -83.57,-0.72 -102.32,-1.43l3.24 -14.5 -5.74 14.25 -116.46 -1.43 -40.84 -1.71c-1.78,7.91 2.18,2.42 -3.37,6.6 -17.51,-3.05 -6.39,0.5 -16.95,4 -11.33,3.75 -12.82,-4.03 -25.63,-3.61 -27.88,0.92 -6.04,-3.97 -24.97,-4.44 -7.67,-0.19 -13.19,1.76 -21.4,0.52 -6.46,-0.98 -11.39,-3.88 -17,-4.67 -4.08,-0.58 -35.46,-2.17 -37.71,-1.78 -24.8,84.27 -16.44,70.31 -59.32,70.25 -29.89,-0.04 -83.95,5.93 -91.54,-35.82l-33.88 -1.23c-6.03,-23.67 2.89,-58.38 2.2,-79.21l-6.43 -3.12c-2.41,3.59 6.02,4.88 -8.59,2.72 -7.14,-1.05 -5.38,-5.73 -26.88,-6.7 -66.83,-3.02 -149.3,-10.19 -210.96,-11.22 -15.43,-0.26 -30.18,-1 -43.95,-1.93 -8.52,-0.57 -35.15,2.17 -41.14,-2.84 -0.43,0.41 -0.84,1.07 -1.05,1.45l-1.68 2.97c-0.2,0.48 -0.38,1.02 -0.53,1.52 -1.19,3.86 1.04,3.4 -4.64,18.52l-6.52 18.72c-7.36,0.71 -4.89,1.41 -12.73,1.07l-46.97 -2.94c-21.44,-2.17 -43.39,0.45 -63.06,-1.68 -9.94,-1.08 -15.52,-5.25 -26.37,-5.76 -13.11,-0.62 -42.65,-3.77 -53.59,-8.97l-14.2 -8.92c0.57,-0.31 3.21,-1.52 3.54,-1.71 0.47,-0.28 2.5,-1.57 2.91,-1.83 0.43,-0.27 1.38,-0.27 1.7,-1.17 0.35,-0.96 1.24,-0.79 1.8,-1.26 0,-11.59 0.93,-1.93 -4.3,-5.96z"/>
  <path class="fil3" d="M951.12 781.39c-8.09,11.93 -0.49,-2.38 -12.93,4.44 -6.7,3.67 -13.82,20.6 -16.46,25.54 -1.48,2.77 -5.55,8.43 -7.95,10.64 1.61,0.95 0.13,-0.01 1.81,3.72 5.06,11.24 4.47,3.58 7.89,13.44 -26.45,-0.15 -107.81,-9.82 -125.81,-2.55l-38.67 0.57c8.26,3.57 37.69,-2.27 40.5,4.78l128.21 1.18 36.36 40.94c2.33,2.18 11.12,8.89 5.44,12.81 3.46,5.45 0.31,0.98 -5.98,-1.26 -0.47,0.57 -1.09,1.25 -1.4,1.73l-2.58 5.91c-6.92,-6.91 -4.49,-3.52 -14.26,-6.39l-20.37 -9.38c-0.41,-0.21 -0.93,-0.45 -1.34,-0.66l-5.37 -2.84c-3.62,-1.49 -1.26,-2 -8.19,-1.72 -8.9,0.36 -2.35,-0.82 -5.53,1.67l-0.24 -42.78c-0.37,0.6 -0.68,1.33 -0.89,1.92l-1.82 5.9c-0.09,0.56 -0.21,5.31 -0.2,6.06l-2.02 29.85c-20.86,6.5 -7.38,-8.26 -39.04,-8.19 4.51,13.38 11.38,17.65 20.01,50.23 4.52,17.06 9.53,38.34 9.54,57.48 -0.28,-0.41 -0.57,-1.02 -0.71,-1.31l-1.97 -4.11c-0.77,-1.85 -1.11,-3.44 -2.09,-5.87 -3.15,-7.83 -1.05,-5.43 -7.67,-8.96 2.35,15.19 6.38,28.8 8.49,44.25 2.16,15.74 4.01,31.78 5.77,47.64 1.82,16.38 4.91,28.32 10.05,42.13 3.52,9.43 3.58,9.58 13.76,11.52 27.92,5.32 190.95,30.3 208.65,30.72l40.84 1.71 -6.16 -3.11c-0.42,-0.25 -0.94,-0.53 -1.35,-0.79 -0.38,-0.25 -0.87,-0.55 -1.22,-0.82 -0.74,-0.54 -5.22,-6.06 -5.39,-6.42 -3.08,-6.91 -1.48,-15.99 -1.86,-25.18 -9.39,-1.99 -15.14,-6.04 -17.33,-17.91 0.39,-0.43 1.06,-1.57 1.29,-1.18l8.53 -6.78 -3.76 -7.34c-6.98,-17.45 -6.53,-28.01 -6.35,-58.49 0.02,-3.78 0.01,-10.01 -0.88,-12.01 -0.78,-1.8 -4.97,-5.4 -6.68,-6.99 2.29,-2.74 1.47,-2.73 4.38,-4.76l-4.33 -9.48c12.44,22.02 64.81,23.39 89.51,24.84 17.86,1.04 62.85,10.06 85.91,3.09 20.44,-2.97 29.07,-6.65 29.13,-28.81 -33.07,-14.17 -66.91,-28.81 -100.68,-43.04l-77.27 -30.09c-17.77,-5.58 -12.5,-3.06 -25.72,2.12 -20.89,-20.59 -25.6,-39.84 -33.54,-46.61 7.48,-1.36 8.14,-0.24 12.94,-4.92 -5.92,0.18 -12.4,0.98 -16.03,-2.13 -4.77,-4.1 -0.18,-2.44 3.12,-9.6 6.94,-15.04 -3.53,-34.28 -9.52,-21.58 -1.3,2.75 -1.02,2.18 -1.63,5.14 -0.92,4.47 0.18,6.27 -1.11,11.1l-2.99 -19.77c-6.48,-1.55 -15.77,3.47 -15.13,-13.16 0.3,-7.7 4.71,-6.14 -0.37,-12.01 -7.35,-8.5 -0.58,-1.27 -11.83,2.39l-14.57 -22.04c-2.1,12.75 -9.98,6.7 -8.85,21.12 -8.16,-3.23 -1.18,-0.33 -4.97,-2.28l-6.96 -4.22c-4.41,5.72 0.15,1.28 -6.57,4.41 -15.62,7.26 -41,-5.56 -42.73,-5.97 -12.27,-2.9 -7,3.02 -12.86,-7.48z"/>
  <path class="fil4" d="M713.28 522.89l34.89 88.22c11.03,30.2 18.98,60.54 28.4,92.73 -17.79,4.86 -402.92,24.36 -412.1,21.93 2.66,-6.12 23.77,-132.28 21.98,-136.85l-23.73 29.45c-1.44,1.88 -1.93,2.64 -3.57,4.35 -3.64,3.78 -1.17,1.65 -4.54,3.88 -8.31,-7.51 -14.29,-25.14 -21.89,-30.22 -8.43,11.15 -23.8,108.3 -31.84,133.13 -7.41,2.16 -6.24,2 -14.52,0.52l-5.81 -20.72c-11.88,2.77 -30.23,2.25 -45.38,2.35 -25.47,0.15 -25.25,3.63 -33.26,10.57 -0.34,0.29 -0.74,0.7 -1.1,0.98 -0.38,0.28 -0.82,0.65 -1.23,0.91l-6.14 2.42c-6.01,1.57 -3.21,0.01 -9.19,2.25 -20.44,7.69 -35.46,8.33 -58,8.45 1.28,-6.38 1.15,-9.68 -0.59,-15.97 -1.94,-7.05 -3.08,-5.6 -5.67,-11.94 -1.96,-4.77 -7.25,-22.18 -7.19,-26.35l-1.85 42.59 -3.74 -11.53c1.44,37.62 -3.38,99.97 -2.93,145.04 0.27,27.14 -9.97,86.56 8.26,110.51 5.94,7.81 6.59,3.42 11.96,13.96 7.66,15.04 16.17,12.76 34.79,15.36 14.06,1.96 29.46,4.58 43.53,7.42 3.76,12.7 1.04,28.09 0.76,41.44 3.2,-13.16 -0.67,-27.08 3.27,-42 0.77,-2.92 1.81,3.31 0.81,-4.62 -1.1,-8.68 -6.55,-2.72 -6.61,-48.55 -0.04,-31.06 -1.65,-74.41 17.81,-93.3 19.67,4.3 23.56,44.72 28.25,65.45 11.36,7.72 2.4,2.51 6,-0.01l-4.38 -19.75 7.23 3.53c0.02,0.01 6.72,5.42 9.01,-1.24l-2.54 -9.98c-0.36,-0.86 -0.9,-1.55 -1.18,-2.4 10.28,-1.15 2.68,-5.35 11.31,-25.88 -14.54,-9.08 -6.11,-1.47 -7.03,-15.43 -0.21,-3.18 -3.71,-16.64 -4.45,-21.23l-1.9 4.8c-2.61,10.35 0.19,22.99 0.26,37.47 -3.66,-3.95 -2.94,-5.01 -5.02,-10.62 -7.44,5.14 -5.31,5.57 -10.42,4.61 -5.7,-11.99 -0.81,-8.33 -9.78,-22.58l-4.29 -9.46c-2.17,-5.33 0.64,-0.88 -2.67,-5.37l-43.77 -0.55c2.38,-2.75 1.85,-6.13 15.96,-5.64 27.53,0.98 13.67,-4.44 10.86,-17.94 -0.72,-3.44 -0.22,-5.46 -0.94,-10.52 -3.8,-0.91 -2.04,-0.36 -5.2,-2.14l-14.35 -17.35c-0.25,-0.4 -0.61,-0.85 -0.85,-1.25 -0.24,-0.42 -0.57,-0.9 -0.79,-1.33 -5.42,-10.35 -3.19,-14.61 -0.73,-20.99 3.05,4.71 -0.19,6.18 0.96,12.51 6.11,2.75 16.38,2.91 22.93,-2.46 6.19,6.63 2.87,4.61 5.96,12.81 3.16,-11.34 -1.34,-5.11 5.97,-9.36 11.76,3.17 2.57,4.9 15.14,12.21 8.59,5 6.19,6.85 8.45,14.99 0.79,2.83 3.1,10.92 4.27,13.42 1.01,-2.97 0.81,-4.7 1.49,-7.69 1.94,-8.5 2.27,-8.56 6.06,-12.38l0.54 36.67c9.31,7.48 47.25,1.79 61.75,3.9 -3.34,-18.44 -28.19,-67.01 -33.66,-95.66l11.58 0.16 -0.1 13.37c10.8,-3.57 6.36,-12.8 19.86,-15.17 11.83,-2.07 36.44,-0.71 45.9,-1.35l107.41 -6.48c19.87,-0.35 40.82,-1.02 60.42,-3.15l244.1 -12.81 5.38 15.82c5.03,24.6 18.01,97.18 15.81,113.77 18,-7.27 99.36,2.4 125.81,2.55 -3.42,-9.86 -2.83,-2.2 -7.89,-13.44 -1.68,-3.73 -0.2,-2.77 -1.81,-3.72 -8.13,-6.07 -11.3,-17.72 -21.03,-31.25 -7.08,-9.85 -14.72,-16 -21.06,-26.86 -4.24,-7.26 -33.59,-49.64 -32.83,-60.95l35.2 -2.29c10.47,-0.06 18.58,-1.56 30.62,-1.99l-70.27 1.48c-15.6,-22.13 -41.38,-84.4 -55.11,-112.78 -3.38,-6.97 -6.53,-14.75 -9.28,-22.49 -5.78,-16.25 -14.74,-30.58 -19.21,-46.87l-8.14 -0.03 -29.39 4.91z"/>
  <path class="fil5" d="M1207.75 141.1c14.8,3.02 47.14,9.51 57.95,17.22 -17.42,2.28 -20.01,-2.26 -54.49,2.8 -17.44,2.56 -11.94,-0.93 -23.52,-4.07 -11.72,-3.17 -16.45,1.83 -23.17,2.73 -18.39,-20.61 -18.64,-12.07 -24.08,-2.83 -4.21,7.15 -0.37,0.72 -6.11,7.08l-1.88 2.28c-4.5,5.69 -7.3,9.5 -8.33,16.29 -2.26,14.87 -1.08,9.56 -5.27,22.27 -3.25,9.84 -5.55,12.5 -5.07,23.39l27.52 7.32c10.49,-0.09 50.81,-8.99 69.08,-10.79 109.35,-10.72 286.15,0.97 395.45,13.99 23.09,2.76 49.63,6.05 73.03,10.93 42.87,8.94 45.36,14.81 63.77,19.84 1.74,-6.37 -11.24,-21.07 -18.2,-32.04 -26.1,-41.16 -44.7,-42.27 -84.02,-55.34 -8.91,-2.96 -9.7,-1.66 -19.68,-2.14 -5.85,-12.1 -19.57,-25.91 -28.64,-37.06 -14.19,-17.46 -11.41,-12.3 -42.03,-23.74l-93.58 -21.95c-5.94,0.44 -3.31,-1.74 -5.69,3.37l-3.82 -8.23c-0.28,0.28 -0.91,0.3 -1.11,1l-6.73 4.46 -3.82 -10.38 49.12 8.38c-0.46,-0.7 -1.25,-1.85 -1.58,-1.38l-61.38 -22.79c-8.87,4.75 -28.24,-1.72 -39.59,-2.42 -14.34,-0.88 -29.77,-1.85 -44.23,-2.03 -16,-0.18 -29.75,0.97 -45.55,1.96 -17.97,1.13 -30.74,0.18 -35.57,11.79 2.58,2.32 3.29,3.88 11.43,4.04l29.82 -3.62c13.86,-1.56 29.86,-1.83 43.84,-1.45 16.88,0.45 71.94,1.37 81.99,6.99l-4.38 13.57c-12.13,0.72 -20.02,-1.97 -33.84,-1.81 -13.43,0.15 -19.3,2.23 -31.76,2.15 -22.89,-0.14 -45.55,-2.07 -65.97,-3.77 -5.95,-0.49 -11.59,0.3 -17.56,-0.21 -17.92,-1.52 -27.74,-2.53 -43.48,-8.9 -7.53,-3.04 -18.8,-7.05 -26.94,-3.9l-5.09 2.96c-0.39,0.24 -0.9,0.51 -1.28,0.75l-4.79 3.39c-3.42,4.33 -1.38,6.74 -0.33,11.69l-10.73 6.92c-12.08,6.36 -3.26,2.45 -9.96,7.99 -7.76,6.42 -21.09,-0.19 -28.8,4.99l69.05 18.31z"/>
  <path class="fil6" d="M1187.66 826.07c13.89,38.46 64.29,76.45 98.88,97.57 4.2,2.56 5.53,3.48 10.12,5.38 4.14,1.72 7.03,2.92 11.15,5.01 3.84,1.94 6.19,3.12 10.73,4.97 20.8,8.45 73.42,22.21 94.54,26.37 36.59,7.21 68.79,13.09 111.61,13.09 -0.66,0.28 -1.66,-0.26 -2.07,0.56 -0.39,0.78 -1.48,0.38 -1.99,0.52 -8.84,2.24 -6.88,-0.38 -7.87,2.9l7.95 0.26 27.86 -0.04 -0.44 -3.33c-1.17,-2.59 4.82,-0.35 21.84,-11.38 8.13,-5.27 14.64,-10.03 22.14,-15.6 34.66,-25.69 90.16,-74.76 109.14,-113.34 -20.64,-1.05 -47.27,2.36 -69.09,2.57 -122.76,1.2 -216,-2.87 -338.32,-20.27l-118.34 -23.21 12.16 27.97z"/>
  <path class="fil0" d="M801.8 899.48c-4.68,13.99 -10.66,24.29 -14.62,41.62 -3.69,16.15 -5.47,32.65 -7.14,49.14 -2.23,21.93 -6.15,84.79 8.07,97.69l6.43 3.12c0.69,20.83 -8.23,55.54 -2.2,79.21l33.88 1.23c7.59,41.75 61.65,35.78 91.54,35.82 42.88,0.06 34.52,14.02 59.32,-70.25 2.25,-0.39 33.63,1.2 37.71,1.78 5.61,0.79 10.54,3.69 17,4.67 8.21,1.24 13.73,-0.71 21.4,-0.52 18.93,0.47 -2.91,5.36 24.97,4.44 12.81,-0.42 14.3,7.36 25.63,3.61 10.56,-3.5 -0.56,-7.05 16.95,-4 5.55,-4.18 1.59,1.31 3.37,-6.6 -17.7,-0.42 -180.73,-25.4 -208.65,-30.72 -10.18,-1.94 -10.24,-2.09 -13.76,-11.52 -5.14,-13.81 -8.23,-25.75 -10.05,-42.13 -1.76,-15.86 -3.61,-31.9 -5.77,-47.64 -2.11,-15.45 -6.14,-29.06 -8.49,-44.25 -3.71,-21.06 -14.36,-45.82 -24.47,-62.15 -5.39,-8.71 -12.32,-18.51 -24.81,-19.46 -15.11,-1.17 -19.91,10.2 -26.31,16.91z"/>
  <path class="fil0" d="M203.58 1047.77c0.6,15.41 11,12 25.59,12.19l1.73 12.05c5.23,4.03 4.3,-5.63 4.3,5.96 -0.56,0.47 -1.45,0.3 -1.8,1.26 -0.32,0.9 -1.27,0.9 -1.7,1.17 -0.41,0.26 -2.44,1.55 -2.91,1.83 -0.33,0.19 -2.97,1.4 -3.54,1.71l14.2 8.92c10.94,5.2 40.48,8.35 53.59,8.97 10.85,0.51 16.43,4.68 26.37,5.76 19.67,2.13 41.62,-0.49 63.06,1.68l46.97 2.94c7.84,0.34 5.37,-0.36 12.73,-1.07l6.52 -18.72c5.68,-15.12 3.45,-14.66 4.64,-18.52 0.15,-0.5 0.33,-1.04 0.53,-1.52l1.68 -2.97c0.21,-0.38 0.62,-1.04 1.05,-1.45l1.49 -5.78c9.18,-1.38 17.05,0.37 27.69,-1.16 13.66,-1.95 8.2,-2.12 14.1,-11.11l17.88 1.75c-9.64,-4.28 -66.96,-8.25 -81.59,-13.45 -13.81,-0.37 -26.86,-2.89 -37.98,-4.71 -31.84,-5.21 -54.3,-0.37 -60.78,-17.67 -8.51,-22.7 -7.79,-66.02 -17.34,-102.7 -2.38,-9.14 -5.66,-21.98 -9.15,-30.46 -5.66,-13.72 -9.23,-19.24 -19.98,-19.38 -14.59,14.42 -18.5,45.35 -20.28,71.37 -4.3,62.91 5.52,68.45 5.8,82.85 -9.73,-3.4 -21.59,1.05 -23.3,-29.16 1.22,0.97 3.4,-2.36 1.56,4.48 -2.29,8.49 2.02,1.37 -5.22,7.15 -1.34,-5.75 -4.24,-3.12 -4.29,-19.52 -15.8,-0.09 -2.45,0.92 -7,-3.98 5.13,-5.07 4.87,-2.42 2.87,-13.22 -6.57,1.87 -6.7,3.28 -15.23,3.18l3.49 -5.7c7.06,-12.49 -1.34,-6.75 20.14,-17.23 -1.58,-15.04 -3.61,-4.41 -2.36,-18.76 -4.69,-20.73 -8.58,-61.15 -28.25,-65.45 -19.46,18.89 -17.85,62.24 -17.81,93.3 0.06,45.83 5.51,39.87 6.61,48.55 1,7.93 -0.04,1.7 -0.81,4.62 -3.94,14.92 -0.07,28.84 -3.27,42z"/>
  <path class="fil5" d="M1068.82 295.26c5.63,21 9.84,27.23 12.83,53.57 8.73,77.04 18.76,227.01 21.57,303.34l-0.21 126.1 0.52 7.56c-36.47,-14.54 -81.96,-84.31 -95.86,-84.88 -10.87,-0.45 -8.78,5.22 -18.19,8.21l84.09 59.78c8.13,6.27 21.33,15.63 29.59,20.31l1.35 -10.01c13.58,4.6 50.15,13.06 66.2,13.97 0.65,-9 -3.26,-11.89 -6.33,-19.23 -5.34,-12.74 1.14,-3.73 -7.74,-16.26 -26.97,-38.03 -43.44,-293.84 -40.43,-297.33 2.16,-1.12 0.25,-0.74 4.8,-1.57 18.53,-3.35 20.89,8.23 59,8.27 6.03,-38.81 -0.49,-85.34 -0.58,-125.42 -0.02,-10.74 4.24,-19.31 3.17,-29.76 -0.85,-8.15 -6.05,-12.37 -8.84,-23.03 -4.85,-18.55 -11.22,-33.06 -22.8,-40.8 -6.06,4.14 -37.88,1.97 -44.15,1.57 -1.72,12.77 -1.37,-0.41 -5.9,11.73 -5.99,16.05 2.94,25.25 -4.32,46.05 -3.82,-3.51 -4.07,-1.6 -4.85,-13.44 -0.26,-3.84 -0.5,-7.87 -0.84,-12 -0.6,9.82 1.92,-0.83 -4.34,3.97 -0.07,-9.62 2.06,-6.55 -3.63,-11.92 -9.78,1.16 -7.29,0.29 -11.94,6.44l-11.35 -15.23c-4.85,-9.59 -3.55,-8.6 -15.78,-8.27 0.52,-0.49 1.32,-0.99 1.73,-1.27 0.36,-0.25 1.15,-0.86 1.54,-1.12l-2.01 -6.4 -8.21 4.05c-1.3,0.88 -6.47,-1.44 -2.75,6.4 4.36,9.19 33.97,9.24 34.66,36.62z"/>
  <path class="fil7" d="M1753.43 277.31c4.76,7.93 11.16,13.45 16.59,23.95 20.72,40.12 39.17,105.89 47.45,151.06 12.68,69.21 34.12,224.06 27.54,289.22 -1.23,12.2 -3.69,23.61 -4.49,35.93 -0.8,12.2 -0.59,23.08 -2.26,35.31l17.44 -6.46c-2.95,-109.34 -9.67,-263.56 -34.72,-369.19 -4.28,-18.03 -8.65,-35.73 -14.34,-53.12 -3.56,-10.88 -15.6,-40.5 -15.58,-51.62 57.9,-3.17 76.77,-34.74 100.53,44.33 6.5,21.65 12.82,41.57 17.96,63.48 5.41,23.05 8.72,45.98 15.9,65.86 13.35,1.71 36.65,-7.86 41.3,-18.95 7.64,-18.26 -2.08,-121.61 -25.93,-157.62 -23.92,-36.1 -52.83,-34.23 -81.26,-44.22 -46.44,-16.32 -43.45,-7.86 -80.09,-12.73 -9.19,-1.22 -18.86,-3.55 -28.19,-4.04 2.15,6.97 4.11,5.75 2.15,8.81z"/>
  <path class="fil8" d="M622 260.75c13.36,0.25 84.76,-19.01 100.97,-23.89 29.2,-8.79 26.16,-3.92 60.35,-17.32 14.4,-5.64 22.3,-1.53 34.05,-10.76 -2.34,10.08 -14.01,27.53 -11.85,38.32 -13.14,39.14 -17.63,97.56 -22.68,140.03 3.6,-2.82 2.86,4.83 3.07,-6.66l5.28 5.92c0.61,-14.03 -2.59,-10.49 7.66,-11.67 -0.06,32.5 -1.25,116.83 7.05,138.45 0.36,-17.43 -3.39,-43.03 -4.54,-61.6 -1.29,-20.71 -0.16,-45.28 0.48,-66.15 0.66,-21.7 7.52,-108.96 16.19,-123.91 1.4,-12.26 5.21,-25.48 10.5,-36.28 3.6,-7.81 2.97,-9.54 6.94,-16.06 12.88,-21.15 5.73,-14.11 22.97,-18.08 5.47,-1.26 8.72,-3.22 15.73,-4.79 29.16,-6.58 29.08,-5.28 53.12,-8.96 20.81,-3.18 17.97,-5.97 38.84,-12.02 26.85,-7.79 11.49,-3.86 41.01,-8.98 7.26,-1.26 8.74,-4.41 15.25,-6.63 3.84,-1.32 5.56,-1 8.3,-1.81 15.23,-4.51 -3.11,-8.72 16.33,-12.6 6.63,-1.33 10.27,-2.21 15.98,-4.72 -16.41,-7.28 -113.57,26.99 -141.14,28.03 5.11,-4.05 4.99,-0.77 3.05,-6.6 -0.84,-2.5 -1.78,-2.02 -0.53,-4.96l6.83 -8.72c3.24,-3.07 4.88,-3.9 8.45,-5.8l2.85 5.77c0.19,0.37 0.74,1.84 0.88,1.53 0.15,-0.32 0.56,1.08 0.93,1.56 7.15,-11.23 31.91,-23.76 44.3,-27.06 5.16,-1.37 9.4,-3.13 13.14,-4.94 34.16,-16.61 38.12,-6.03 36.14,-17.39 -19.41,2.54 -88.66,26.85 -112.55,34.45 -33.18,10.57 -151.28,41.77 -168.53,48.41 -9.43,3.63 -11.34,8.31 -23.13,12.05 -64.61,20.53 -74.2,48.22 -91.29,54.5 -16.58,6.1 -15.66,2.4 -20.4,19.34z"/>
  <path class="fil9" d="M1701.25 839.01c-18.98,38.58 -74.48,87.65 -109.14,113.34 -7.5,5.57 -14.01,10.33 -22.14,15.6 -17.02,11.03 -23.01,8.79 -21.84,11.38 15.81,2.08 56.28,-2.71 75.96,-5.21 36.42,-4.62 77.9,-17.58 111.84,-31.05 15.35,-6.09 39.97,-19.3 51.35,-32.34 5.04,-5.76 10.72,-9.17 15.11,-14.78 7.45,-9.49 16.05,-23.35 21.93,-35.69 5.97,-12.53 6.66,-20.14 8.43,-33.39 1.23,-9.24 -1,-6.16 3.82,-11.98 -10.64,1.78 -19.51,6.47 -30.47,9.27 -11.44,2.92 -21.41,4.08 -33.39,6.17 -15.16,2.63 -63.64,5.8 -71.46,8.68z"/>
  <path class="fil3" d="M247.11 924.75c-1.25,14.35 0.78,3.72 2.36,18.76 -21.48,10.48 -13.08,4.74 -20.14,17.23l-3.49 5.7c8.53,0.1 8.66,-1.31 15.23,-3.18 2,10.8 2.26,8.15 -2.87,13.22 4.55,4.9 -8.8,3.89 7,3.98 0.05,16.4 2.95,13.77 4.29,19.52 7.24,-5.78 2.93,1.34 5.22,-7.15 1.84,-6.84 -0.34,-3.51 -1.56,-4.48 1.71,30.21 13.57,25.76 23.3,29.16 -0.28,-14.4 -10.1,-19.94 -5.8,-82.85 1.78,-26.02 5.69,-56.95 20.28,-71.37 10.75,0.14 14.32,5.66 19.98,19.38 3.49,8.48 6.77,21.32 9.15,30.46 9.55,36.68 8.83,80 17.34,102.7 6.48,17.3 28.94,12.46 60.78,17.67 11.12,1.82 24.17,4.34 37.98,4.71 -6.06,-9.7 -17,-18.09 -23.76,-27.98 -6.57,-9.61 -12.98,-21.56 -18.93,-32.85 -11.85,-22.44 -25.75,-46.44 -35.07,-68.83 -5.79,-9.22 -14.7,-28.39 -19.6,-39.67l-17.83 -40.76c-14.5,-2.11 -52.44,3.58 -61.75,-3.9l-0.54 -36.67c-3.79,3.82 -4.12,3.88 -6.06,12.38 -0.68,2.99 -0.48,4.72 -1.49,7.69 -1.17,-2.5 -3.48,-10.59 -4.27,-13.42 -2.26,-8.14 0.14,-9.99 -8.45,-14.99 -12.57,-7.31 -3.38,-9.04 -15.14,-12.21 -7.31,4.25 -2.81,-1.98 -5.97,9.36 -3.09,-8.2 0.23,-6.18 -5.96,-12.81 -6.55,5.37 -16.82,5.21 -22.93,2.46 -1.15,-6.33 2.09,-7.8 -0.96,-12.51 -2.46,6.38 -4.69,10.64 0.73,20.99 0.22,0.43 0.55,0.91 0.79,1.33 0.24,0.4 0.6,0.85 0.85,1.25l14.35 17.35c3.16,1.78 1.4,1.23 5.2,2.14 0.72,5.06 0.22,7.08 0.94,10.52 2.81,13.5 16.67,18.92 -10.86,17.94 -14.11,-0.49 -13.58,2.89 -15.96,5.64l43.77 0.55c3.31,4.49 0.5,0.04 2.67,5.37l4.29 9.46c8.97,14.25 4.08,10.59 9.78,22.58 5.11,0.96 2.98,0.53 10.42,-4.61 2.08,5.61 1.36,6.67 5.02,10.62 -0.07,-14.48 -2.87,-27.12 -0.26,-37.47l1.9 -4.8c0.74,4.59 4.24,18.05 4.45,21.23 0.92,13.96 -7.51,6.35 7.03,15.43 -8.63,20.53 -1.03,24.73 -11.31,25.88 0.28,0.85 0.82,1.54 1.18,2.4l2.54 9.98c-2.29,6.66 -8.99,1.25 -9.01,1.24l-7.23 -3.53 4.38 19.75c-3.6,2.52 5.36,7.73 -6,0.01z"/>
  <path class="fil10" d="M109.93 608.32l-2.72 105.72 3.74 11.53 1.85 -42.59c-0.06,4.17 5.23,21.58 7.19,26.35 2.59,6.34 3.73,4.89 5.67,11.94 1.74,6.29 1.87,9.59 0.59,15.97 22.54,-0.12 37.56,-0.76 58,-8.45 5.98,-2.24 3.18,-0.68 9.19,-2.25l6.14 -2.42c0.41,-0.26 0.85,-0.63 1.23,-0.91 0.36,-0.28 0.76,-0.69 1.1,-0.98 8.01,-6.94 7.79,-10.42 33.26,-10.57 15.15,-0.1 33.5,0.42 45.38,-2.35 -7.89,-19.23 -27.59,-96.92 -27.02,-116.69l-139.71 20.91c-0.71,-0.98 -1.47,0.63 -3.89,-5.21z"/>
  <path class="fil11" d="M742.67 517.98l8.14 0.03c4.47,16.29 13.43,30.62 19.21,46.87 2.75,7.74 5.9,15.52 9.28,22.49 13.73,28.38 39.51,90.65 55.11,112.78l70.27 -1.48c-12.04,0.43 -20.15,1.93 -30.62,1.99l-35.2 2.29c-0.76,11.31 28.59,53.69 32.83,60.95 6.34,10.86 13.98,17.01 21.06,26.86 9.73,13.53 12.9,25.18 21.03,31.25 2.4,-2.21 6.47,-7.87 7.95,-10.64 2.64,-4.94 9.76,-21.87 16.46,-25.54 12.44,-6.82 4.84,7.49 12.93,-4.44l-38.65 -96.07c-3.36,-7.39 -7.71,-19.16 -7.01,-27.32 0.81,-9.48 -0.95,-5.46 4.27,-7.68 -6.46,-7.25 -66.32,-50.44 -76.95,-58.51 -24.24,-18.39 -61.57,-37.78 -54.38,-80.5 -5.49,3.58 -9.68,2.48 -18.22,3.65 -5.55,0.75 -11.71,1.93 -17.51,3.02z"/>
  <path class="fil5" d="M1128.17 990.37c5.78,4.09 7.01,5.71 9.86,14.07 6.68,19.55 7.55,9.87 9.35,22.07 2.37,16.13 5.7,2.85 5.02,23.78 6.48,0.7 7.19,1.51 11.19,4.29 -1.24,11.38 -2.47,-2.6 -5.4,11.98 14.88,-2.05 9.41,-13.13 28.74,-20.3 19.1,-7.09 35.29,-8.51 35.29,17.77l-7.35 -1.84c-8.95,-3.84 -2.67,-4 -2.6,-4.13 -0.54,9.6 -2.77,16.23 -13.59,15.93l-5.99 -1.38c-0.39,-0.71 -3.54,0.1 -5.36,-6.83l0.41 -9.14c2.74,-7.91 3.47,-6.91 12.6,-8.51l0.01 1.97c-10.34,0.44 -13.54,9.16 -16.15,16.54l-1.15 4c-0.06,0.23 -0.12,1.49 -0.16,1.24 -0.01,-0.12 -3,4.54 6.61,9.3 15.36,7.6 20.99,-4.93 29.16,1.16 -6.71,1.64 -8.93,3.46 -16.33,3.98 -2.13,4.4 -0.17,-1.62 -0.15,1.82 0.06,9.19 2.96,-6.33 0.15,1.55 -13.92,-2.82 -27.51,-3.75 -38.47,3.4l-9.79 6.77c14.12,10.53 86.61,4.9 105.82,5.95 10.68,0.58 20.1,4.44 31.99,2.33 0.33,-11.63 0.38,-12.17 3.99,-20.21 8.8,8.79 1.52,-3.16 2.58,4.71 0.86,6.41 0.05,-0.88 -1.12,4.16 -0.63,2.72 -5.02,-0.88 0.51,13 7.17,-1.77 85.86,-2.25 93.36,-0.37 -11.34,-35.74 -24.2,-44.91 -44.24,-66.83l-47.7 -33.78c-23.06,6.97 -68.05,-2.05 -85.91,-3.09 -24.7,-1.45 -77.07,-2.82 -89.51,-24.84l4.33 9.48z"/>
  <path class="fil6" d="M1285.92 130.44c20.01,4.06 42.24,9.82 59,18.92 26.49,14.39 35.75,36.22 40.48,38.36 55.86,4.17 113.09,11.08 169.46,11.27 14.24,-49.49 22.61,-35.51 39.47,-46.54 -33.39,-13.95 -93.64,-22.02 -135.3,-27.73 -2.67,4.81 -0.23,5.9 -6.27,7.84l-7.89 -9.08c-33.84,-1.76 -132.43,-3.94 -158.95,6.96z"/>
  <path class="fil12" d="M782.84 387.13c-3,30.01 -8.31,95.75 -4.44,124.18 -7.19,42.72 30.14,62.11 54.38,80.5 10.63,8.07 70.49,51.26 76.95,58.51 8.33,3.19 21.48,14.73 29.14,20.49 5.11,3.84 9.1,6.77 13.14,10.77 4.56,4.51 7.56,8.69 13.38,12.86 9.02,5.62 13.87,12.55 24.09,14.72 9.41,-2.99 7.32,-8.66 18.19,-8.21 13.9,0.57 59.39,70.34 95.86,84.88l-0.52 -7.56 -27.24 -27.39c-3.6,-3.3 -6.79,-4.52 -10.5,-7.57l-46.13 -41.29c-4.92,-3.65 -5.25,-3.46 -9.8,-8.2l-72.68 -66.63c-6.59,-5.64 -9.4,-11.01 -16.62,-17.11 -34.31,-29.03 -56.44,-51.18 -94.27,-80.9 -11.78,-9.26 -14.63,-7.58 -19.87,-16.01 -8.3,-21.62 -7.11,-105.95 -7.05,-138.45 -10.25,1.18 -7.05,-2.36 -7.66,11.67l-5.28 -5.92c-0.21,11.49 0.53,3.84 -3.07,6.66z"/>
  <path class="fil7" d="M1681.98 1108.28c20.67,0.32 143.19,3.27 151.87,-4.44 -3.81,-6.33 -2.7,-4.14 -12.61,-4.45 -1.15,-9.9 -3.71,-7.69 -4.11,-16.92 12.6,7.81 19.85,1.44 23.96,-10.47 -4.82,-2.93 0.65,-1.55 -5.34,-1.59 -0.41,0 -2.54,1.36 -2.61,1.6l-3.93 -8c6.15,5.42 -1.99,6.09 -6.01,7.98l-8.72 -8.64c-0.29,-0.27 -0.92,-0.79 -1.22,-1.3 4.49,-12.06 6.22,-15.26 23.85,-15.91 2.21,3.49 3.23,3.8 5.98,8.12l14.59 -33.06c1.79,-7.2 -1.07,-8.25 4.25,-13.94 -0.72,-3.16 2.15,-54.25 3.84,-62.65 -6.17,1.97 -7.75,1.81 -7.24,8.91 0.12,1.73 1.71,11.84 1.95,13.82 1.1,9.25 2.36,22.03 -0.57,29.04 -7.77,14.74 -99.76,14.31 -115.25,12.49l5.68 -7.77c-1.11,0.04 4.83,2.52 -5.26,1 0.31,-7.65 -0.8,-1.99 1.8,-6.07 0.24,-0.37 0.62,-0.85 0.9,-1.14l7.18 -1.88c4.4,-0.95 3.57,-2.53 14.69,1.39l-4.91 1.77c-2.51,1.32 -1.47,-3.61 -1.59,3.13l6.97 1.67c-1.18,4.75 2.33,4.95 4.08,6.31 0.02,-0.02 9.09,-6.3 11.23,-10.4 4.95,-9.51 -1.82,-2.8 9.11,-9.76 8.54,-5.45 5.11,-10.95 -5.38,-9.97 -0.4,0.03 -1,0.17 -1.4,0.21 -0.37,0.04 -0.97,0.14 -1.32,0.18 -7.56,0.78 -5.09,-1.02 -7.92,0.93 8.84,8.3 7.42,-10.4 10.51,7.96 -6.34,4 -15.83,3.32 -23.49,3.9 -4.19,0.32 -7.02,1.04 -9.98,0.39l-7.73 -4.29 55.86 -29.71c14.85,-8.28 45.52,-28.88 52.13,-30.69l-1.94 -3.57c-9.54,8.69 -103.49,57.98 -123.47,63.01 0.39,8.34 3.97,16.23 8.69,21.34 7.23,7.84 13.34,3.75 22.29,7.48 -17.11,17.04 -74.85,44.54 -79.41,93.99z"/>
  <path class="fil9" d="M1164.95 1142.15l116.46 1.43 5.74 -14.25 -3.24 14.5c18.75,0.71 91.32,-2.58 102.32,1.43 1.26,-7.47 2.06,-16.53 6.03,-21.02l-1.06 -14.81c-7.5,-1.88 -86.19,-1.4 -93.36,0.37 -5.53,-13.88 -1.14,-10.28 -0.51,-13 1.17,-5.04 1.98,2.25 1.12,-4.16 -1.06,-7.87 6.22,4.08 -2.58,-4.71 -3.61,8.04 -3.66,8.58 -3.99,20.21 -11.89,2.11 -21.31,-1.75 -31.99,-2.33 -19.21,-1.05 -91.7,4.58 -105.82,-5.95l9.79 -6.77c10.96,-7.15 24.55,-6.22 38.47,-3.4 2.81,-7.88 -0.09,7.64 -0.15,-1.55 -0.02,-3.44 -1.98,2.58 0.15,-1.82 7.4,-0.52 9.62,-2.34 16.33,-3.98 -8.17,-6.09 -13.8,6.44 -29.16,-1.16 -9.61,-4.76 -6.62,-9.42 -6.61,-9.3 0.04,0.25 0.1,-1.01 0.16,-1.24l1.15 -4c2.61,-7.38 5.81,-16.1 16.15,-16.54l-0.01 -1.97c-9.13,1.6 -9.86,0.6 -12.6,8.51l-0.41 9.14c1.82,6.93 4.97,6.12 5.36,6.83l5.99 1.38c10.82,0.3 13.05,-6.33 13.59,-15.93 -0.07,0.13 -6.35,0.29 2.6,4.13l7.35 1.84c0,-26.28 -16.19,-24.86 -35.29,-17.77 -19.33,7.17 -13.86,18.25 -28.74,20.3 2.93,-14.58 4.16,-0.6 5.4,-11.98 -4,-2.78 -4.71,-3.59 -11.19,-4.29 0.68,-20.93 -2.65,-7.65 -5.02,-23.78 -1.8,-12.2 -2.67,-2.52 -9.35,-22.07 -2.85,-8.36 -4.08,-9.98 -9.86,-14.07 -2.91,2.03 -2.09,2.02 -4.38,4.76 1.71,1.59 5.9,5.19 6.68,6.99 0.89,2 0.9,8.23 0.88,12.01 -0.18,30.48 -0.63,41.04 6.35,58.49l3.76 7.34 -8.53 6.78c-0.23,-0.39 -0.9,0.75 -1.29,1.18 2.19,11.87 7.94,15.92 17.33,17.91 0.38,9.19 -1.22,18.27 1.86,25.18 0.17,0.36 4.65,5.88 5.39,6.42 0.35,0.27 0.84,0.57 1.22,0.82 0.41,0.26 0.93,0.54 1.35,0.79l6.16 3.11z"/>
  <path class="fil13" d="M1392.26 1124.24c-3.97,4.49 -4.77,13.55 -6.03,21.02l282.85 -2.23 12.9 -34.75 -288.49 0.2 -0.45 20.63 -0.78 -4.87z"/>
  <path class="fil14" d="M1319.74 984.18c-0.46,0.13 -1.06,0.24 -1.16,0.83l-2.01 2.36c-0.55,2.07 0.92,1.57 1.18,2.18 -16.58,1.44 3.86,1.6 -21.62,7.97 -0.47,0.12 -1.09,0.3 -1.51,0.42 -0.39,0.11 -1.09,0.39 -1.4,0.49 -0.3,0.09 -0.96,0.24 -1.34,0.54 -0.75,-0.84 -6.2,1.47 2.13,-4.29l2.79 -1.88c5.09,-9.93 -0.11,-6.55 -0.94,-7.96 -8.22,1.54 -11.6,6.22 -16.93,10.27 0.17,7.23 5.65,-4.59 -5.49,-1.28 -2.09,0.62 -7.91,5.74 -5.44,7.25l-14.29 -0.53 11.32 -4.71 -11.23 -0.95c0.26,-0.69 6.64,-2.08 -5.7,-10 -8.91,4.61 -0.03,-2.48 -3.82,3.48 -3.18,5.01 -1.8,1.83 -0.16,2.9 -4.67,-3.04 -2.09,-0.71 -6.68,-2.92 -2.25,-1.09 -4.55,-2.76 -6.22,-3.91l6.16 -11.06c2.77,7.85 3.72,5.13 10.77,7.5 12.73,4.28 23.11,4.77 37.81,0.03 0.26,-0.09 0.83,-0.22 1.09,-0.33 5.11,-2.07 5.09,-3.72 7.87,-8.08l-92.39 -41.95c-8.11,-3.63 -15.85,-7.69 -23.25,-10.76 -12.06,-5 -16.24,-5.81 -27.42,-3.91 -21.51,3.66 -35.22,-13.53 -28.3,38.27 3.21,23.98 7.24,31 30.49,36.59 17.82,4.28 40.43,6.39 58.8,8.6 10.61,1.27 128.69,19.33 106.89,-15.16z"/>
  <path class="fil15" d="M951.12 781.39c5.86,10.5 0.59,4.58 12.86,7.48 1.73,0.41 27.11,13.23 42.73,5.97 6.72,-3.13 2.16,1.31 6.57,-4.41l6.96 4.22c3.79,1.95 -3.19,-0.95 4.97,2.28 -1.13,-14.42 6.75,-8.37 8.85,-21.12 -3.45,-6.47 -11.55,-15.56 -15.84,-21.15l-52.83 -60.22c-5.82,-4.17 -8.82,-8.35 -13.38,-12.86 -4.04,-4 -8.03,-6.93 -13.14,-10.77 -7.66,-5.76 -20.81,-17.3 -29.14,-20.49 -5.22,2.22 -3.46,-1.8 -4.27,7.68 -0.7,8.16 3.65,19.93 7.01,27.32l38.65 96.07z"/>
  <path class="fil3" d="M1681.98 1108.28l-12.9 34.75c54.61,3.85 112.75,-1.37 164.93,-2.55 0.34,-0.34 0.81,-1.4 0.93,-1.09l3.18 -4.87c16.41,-31.66 21.55,-93.29 23.81,-127.26 -5.32,5.69 -2.46,6.74 -4.25,13.94l-14.59 33.06c-2.75,-4.32 -3.77,-4.63 -5.98,-8.12 -17.63,0.65 -19.36,3.85 -23.85,15.91 0.3,0.51 0.93,1.03 1.22,1.3l8.72 8.64c4.02,-1.89 12.16,-2.56 6.01,-7.98l3.93 8c0.07,-0.24 2.2,-1.6 2.61,-1.6 5.99,0.04 0.52,-1.34 5.34,1.59 -4.11,11.91 -11.36,18.28 -23.96,10.47 0.4,9.23 2.96,7.02 4.11,16.92 9.91,0.31 8.8,-1.88 12.61,4.45 -8.68,7.71 -131.2,4.76 -151.87,4.44z"/>
  <path class="fil7" d="M799.72 866.99c9.09,9.44 2.66,16.76 2.08,32.49 6.4,-6.71 11.2,-18.08 26.31,-16.91 12.49,0.95 19.42,10.75 24.81,19.46 10.11,16.33 20.76,41.09 24.47,62.15 6.62,3.53 4.52,1.13 7.67,8.96 0.98,2.43 1.32,4.02 2.09,5.87l1.97 4.11c0.14,0.29 0.43,0.9 0.71,1.31 -0.01,-19.14 -5.02,-40.42 -9.54,-57.48 -8.63,-32.58 -15.5,-36.85 -20.01,-50.23 31.66,-0.07 18.18,14.69 39.04,8.19l2.02 -29.85c-0.01,-0.75 0.11,-5.5 0.2,-6.06l1.82 -5.9c0.21,-0.59 0.52,-1.32 0.89,-1.92l0.24 42.78c3.18,-2.49 -3.37,-1.31 5.53,-1.67 6.93,-0.28 4.57,0.23 8.19,1.72l5.37 2.84c0.41,0.21 0.93,0.45 1.34,0.66l20.37 9.38c9.77,2.87 7.34,-0.52 14.26,6.39l2.58 -5.91c0.31,-0.48 0.93,-1.16 1.4,-1.73 6.29,2.24 9.44,6.71 5.98,1.26 5.68,-3.92 -3.11,-10.63 -5.44,-12.81l-36.36 -40.94 -128.21 -1.18c0.05,9.78 2.47,15.78 0.22,25.02z"/>
  <path class="fil16" d="M622 260.75l-3.86 0.94c-0.29,7.27 -0.07,14.23 1.11,20.32 3.49,17.99 3.37,12.95 -0.14,17.66l186.41 -52.57c-2.16,-10.79 9.51,-28.24 11.85,-38.32 -11.75,9.23 -19.65,5.12 -34.05,10.76 -34.19,13.4 -31.15,8.53 -60.35,17.32 -16.21,4.88 -87.61,24.14 -100.97,23.89z"/>
  <path class="fil17" d="M131.84 440.49c23.02,-8.6 47.69,-15.56 71.91,-22.85 11.92,-3.58 66.89,-18.19 73.13,-22.58 -8.06,0.98 -1.94,0.56 -3.57,-1.63 6.63,-10.97 8.73,-21.18 17.24,-30.27 6.71,-7.17 7.23,-4.04 15.29,-8.54 2.5,-1.4 12.35,-8.79 14.89,-11.06 -10.68,1.2 -90.9,27.41 -108.57,32.86 -22.61,6.97 -32.6,8.65 -49.66,21.9 -9.12,7.08 -13.32,3.08 -20.69,15.23 -4.22,6.94 -9.48,17.87 -9.97,26.94z"/>
  <path class="fil13" d="M1853.88 922.46l1.94 3.57c-6.61,1.81 -37.28,22.41 -52.13,30.69l-55.86 29.71 7.73 4.29c2.96,0.65 5.79,-0.07 9.98,-0.39 7.66,-0.58 17.15,0.1 23.49,-3.9 -3.09,-18.36 -1.67,0.34 -10.51,-7.96 2.83,-1.95 0.36,-0.15 7.92,-0.93 0.35,-0.04 0.95,-0.14 1.32,-0.18 0.4,-0.04 1,-0.18 1.4,-0.21 10.49,-0.98 13.92,4.52 5.38,9.97 -10.93,6.96 -4.16,0.25 -9.11,9.76 -2.14,4.1 -11.21,10.38 -11.23,10.4 -1.75,-1.36 -5.26,-1.56 -4.08,-6.31l-6.97 -1.67c0.12,-6.74 -0.92,-1.81 1.59,-3.13l4.91 -1.77c-11.12,-3.92 -10.29,-2.34 -14.69,-1.39l-7.18 1.88c-0.28,0.29 -0.66,0.77 -0.9,1.14 -2.6,4.08 -1.49,-1.58 -1.8,6.07 10.09,1.52 4.15,-0.96 5.26,-1l-5.68 7.77c15.49,1.82 107.48,2.25 115.25,-12.49 2.93,-7.01 1.67,-19.79 0.57,-29.04 -0.24,-1.98 -1.83,-12.09 -1.95,-13.82 -0.51,-7.1 1.07,-6.94 7.24,-8.91l-2.04 -9.09c-0.31,-6.7 0,-5.87 -1.45,-13.29 -1.92,-9.86 -2.06,-18.38 -4.7,-27.21 -2.73,16.87 3.55,7.42 -3.7,27.44z"/>
  <path class="fil18" d="M872.11 990.41l-23.96 9.87c-8.74,3.72 -16.83,15.94 -17.25,21.92 12.12,-1.78 -1.74,-5.31 13,0.04 -0.47,-7.89 -0.89,-6.02 2.13,-11.93 0.91,0.21 8.02,-2.27 11.72,6.48l-0.8 4.84c2.3,10.78 -0.58,2.78 3.63,2.99 0.07,0 0.53,-0.15 0.58,-0.16 0.05,0 0.37,-0.32 0.52,-0.22 1.99,13.16 -1.88,5.11 -9.81,11.8 -7.96,6.71 1.33,9.2 -9.72,12.3 -2.86,-3.47 -1.5,4.16 -2.3,-6.15 -0.93,-11.93 7.97,-11.69 -5.66,-18.14 -5.56,8.28 1.68,1.38 -7.22,14.68 -2.31,3.44 -1.39,-5.42 -2.77,5.41l10.66 0.77c-0.41,0.9 -1.13,0.8 -1.31,1.54 -1.67,7.09 -0.19,-12.95 -4.8,13.57 -2.16,12.39 -4.64,4.73 -5.3,13.15 4.08,3.38 -0.08,-0.43 10.2,0.34l-5.42 26.34c9.85,-2.16 6.05,-0.69 14.06,-0.43 0.67,5.82 1.05,6.4 2.2,12.37 15.28,-10.67 -0.33,-8.73 18.64,-14.71l-3.42 -8.69c-0.2,-0.37 -0.62,-0.77 -0.81,-1.11 -4.21,-7.93 -1.5,1.79 -0.96,-10.14 2.29,1.48 3.16,3.65 8.8,5.31 0.6,-0.54 1.49,-3.91 7.06,-4.75l6.89 0.06c0.25,-0.03 0.97,-0.19 1.17,-0.22 0.21,-0.03 0.8,-0.15 1.19,-0.26 0.2,-0.58 0.23,-2.09 0.27,-1.82l5.46 -27.3c-1.06,-22.04 -7.61,-74.31 -34.77,-70.89 10.11,3.69 12.41,3.42 18.1,13.14z"/>
  <path class="fil19" d="M430.7 620.7c-8.59,-3.54 -10.97,-10.44 -23.45,-1.51 -7.36,5.27 -6.16,13.46 -8.32,25.66 -3.29,18.53 -8.14,41.17 -9.4,59.1 14.36,-0.53 10.37,1.95 15.76,-31.27 3.05,-18.77 2.17,-34.23 11.01,-37.4 7.74,9.11 -3.61,52.36 -5.04,66.17l11.08 0.66c2.09,-11.62 4.11,-24.2 5.87,-36.04 1.55,-10.47 0.19,-28.72 9.98,-33.21 9.71,10.03 -3.24,45.35 -3.62,59.69l1.63 8.15c11.52,-0.82 8.57,5.42 12.28,-22.09 1.31,-9.79 3.01,-19.43 4.45,-29.27 6.88,-47.08 -15.9,-41.2 -22.23,-28.64z"/>
  <path class="fil20" d="M477.87 607.33c-13.8,6.76 -19.72,28.48 -22.37,46.7 -2.65,18.29 -3.97,55.82 21.94,45.67 20.55,-8.04 32,-107.85 0.43,-92.37z"/>
  <path class="fil19" d="M532.74 603.1c-4.24,17.38 -10.7,46.9 -18.17,58.81l-0.09 -56.96 -12.56 1.52c-1.16,18.38 -0.95,72.85 3.92,88.27 14.6,0.87 14.73,-7.46 25.55,-40.69 5.06,-15.54 13.09,-35.53 14.7,-53.22l-13.35 2.27z"/>
  <path class="fil21" d="M304.86 1060.72c7.73,-2.42 1.98,2.17 7.32,-5.36 4.65,-6.58 3.9,-22.53 4.78,-37.08 0.81,-13.19 0.27,-14.69 -2.62,-23.42 -2.39,-7.22 -3.27,-16.38 -3.51,-24.47 -6.78,2.9 -1.96,-0.46 -6.22,7.83 -4.04,-5.57 -1.66,-4.38 -7.71,-7.97 -4.1,6.02 -4.31,12.92 -5.11,20.83 -1.92,18.89 -2,59.57 13.07,69.64z"/>
  <path class="fil2" d="M366.51 875.92l0.41 42.04 25.16 3.09 -0.89 -36.09c-2.81,-19.44 -0.65,-18.33 -22.51,-17.8l-2.17 8.76z"/>
  <path class="fil2" d="M1538.63 929.86c6.3,-2.61 1.84,-0.37 5.27,-3.54 12.9,-11.91 16.62,-36.98 -9.06,-35.32 -25.33,1.63 -13.81,25.34 -7.94,31.55 0.29,0.3 0.71,0.7 1.01,0.99 6.39,6.36 4.53,5.32 10.72,6.32z"/>
  <path class="fil0" d="M1548.57 982.66l-27.86 0.04c-4.33,4.8 -2.76,2.3 -3.23,11.6 -0.2,4.08 -0.1,9.15 -0.01,13.27l37 1.76 0.5 -24.88 -6.4 -1.79z"/>
 </g>
</svg>
